#!OML:ASF E:\Steps\Project 1\Capture day 1\Session 2\Subject.ASF
:FULLY-SPECIFIED
:DEGREES
749
root 10.0686 22.2799 -8.09913 -154.86 -1.96892 176.371
lowerback -16.6281 -0.706386 -4.80847
upperback 3.09907 0.166149 -0.996394
thorax 12.8487 -0.254917 1.6639
lowerneck -4.21849 -0.684104 -0.84478
upperneck 19.8224 -2.77388 3.40619
head 6.78179 -1.59071 0.98555
rclavicle 5.71506e-016 -1.14798e-014
rhumerus -34.3791 -9.23942 -81.4296
rradius 44.6673
rwrist -7.13184
rhand -8.64153 -52.5211
rfingers 7.12502
rthumb 17.2915 638.228
lclavicle 5.71506e-016 -1.14798e-014
lhumerus -33.8309 3.71099 78.103
lradius 32.2284
lwrist -0.436458
lhand -21.3884 -14.1759
lfingers 7.12502
lthumb 4.99935 15.7451
rfemur -28.7481 3.95723 21.4201
rtibia 16.1499
rfoot -19.8716 -12.6465
rtoes -30.2351
lfemur -84.7786 -3.68828 -21.5976
ltibia 76.0245
lfoot -12.5981 2.88396
ltoes -32.9138
750
root 10.0695 22.2776 -8.14727 -154.938 -1.89413 176.397
lowerback -16.6326 -0.617205 -4.85611
upperback 2.88763 0.281086 -0.934216
thorax 12.5993 -0.199214 1.79334
lowerneck -3.55667 -0.732042 -1.30682
upperneck 20.1676 -2.93318 3.51505
head 6.78624 -1.7336 1.08908
rclavicle -7.45443e-017 1.52816e-014
rhumerus -34.8486 -9.16354 -81.2192
rradius 44.7442
rwrist -7.35747
rhand -8.74793 -52.7014
rfingers 7.12502
rthumb 17.1891 638.039
lclavicle -7.45443e-017 1.52816e-014
lhumerus -34.214 3.76173 78.1789
lradius 31.9126
lwrist -0.776619
lhand -21.2145 -13.802
lfingers 7.12502
lthumb 5.16721 16.115
rfemur -28.3959 3.94476 21.459
rtibia 15.9895
rfoot -19.971 -12.555
rtoes -30.3712
lfemur -84.6142 -3.67144 -21.4359
ltibia 75.0293
lfoot -11.546 2.36572
ltoes -30.8856
751
root 10.0681 22.276 -8.18751 -154.985 -1.75486 176.287
lowerback -16.681 -0.691821 -5.09933
upperback 3.1637 0.251221 -0.982566
thorax 12.9509 -0.241904 1.86661
lowerneck -4.63142 -0.657245 -0.787169
upperneck 20.4025 -2.73319 3.03286
head 7.03595 -1.5993 0.851946
rclavicle 3.57812e-015 -2.91716e-014
rhumerus -34.0657 -8.98039 -81.5638
rradius 44.6931
rwrist -7.56579
rhand -9.36125 -52.4055
rfingers 7.12502
rthumb 16.5987 638.284
lclavicle 3.57812e-015 -2.91716e-014
lhumerus -33.4006 3.79455 78.1094
lradius 31.3867
lwrist -0.552743
lhand -21.203 -13.5781
lfingers 7.12502
lthumb 5.17837 16.3386
rfemur -28.2102 3.92387 21.3112
rtibia 16.0176
rfoot -20.1039 -12.4913
rtoes -30.3392
lfemur -84.4308 -3.69393 -21.4603
ltibia 74.1073
lfoot -10.2644 2.0958
ltoes -31.2191
752
root 10.0596 22.2717 -8.23481 -155.077 -1.60031 176.265
lowerback -16.522 -0.452635 -5.04568
upperback 2.84917 0.535936 -0.978303
thorax 12.4717 -0.0896255 1.92046
lowerneck -2.73787 -0.800777 -0.835844
upperneck 19.2407 -2.85392 2.91887
head 6.33091 -1.69995 0.838261
rclavicle -7.26185e-015 1.52443e-014
rhumerus -34.9089 -9.1976 -81.1719
rradius 44.9221
rwrist -7.50829
rhand -9.60792 -52.1257
rfingers 7.12502
rthumb 16.3612 638.544
lclavicle -7.26185e-015 1.52443e-014
lhumerus -33.9463 3.17083 78.4997
lradius 31.0288
lwrist -0.544936
lhand -21.2228 -13.8224
lfingers 7.12502
lthumb 5.15918 16.0948
rfemur -27.8245 3.90627 21.2561
rtibia 15.9641
rfoot -20.4551 -12.2943
rtoes -29.08
lfemur -84.1637 -3.7183 -21.4091
ltibia 73.2743
lfoot -9.3254 1.81357
ltoes -31.8189
753
root 10.0495 22.2646 -8.28944 -155.19 -1.40065 176.255
lowerback -16.6041 -0.325408 -5.00904
upperback 2.8445 0.708734 -1.03026
thorax 12.5032 -0.00516263 1.8889
lowerneck -2.71861 -0.796317 -0.897839
upperneck 19.7986 -2.92871 2.84019
head 6.50684 -1.76893 0.814142
rclavicle 5.65294e-016 -6.99939e-015
rhumerus -34.9811 -9.50577 -81.1653
rradius 44.9512
rwrist -7.1261
rhand -9.21984 -51.9996
rfingers 7.12502
rthumb 16.7348 638.702
lclavicle 5.65294e-016 -6.99939e-015
lhumerus -34.5354 3.39509 78.5532
lradius 31.2149
lwrist -0.999785
lhand -21.1687 -14.1016
lfingers 7.12502
lthumb 5.21147 15.8143
rfemur -27.3571 3.8706 21.2147
rtibia 15.8627
rfoot -20.8697 -11.9768
rtoes -27.7321
lfemur -83.8344 -3.73196 -21.342
ltibia 72.5362
lfoot -8.51269 1.58909
ltoes -33.336
754
root 10.0477 22.2581 -8.33267 -155.143 -1.3467 176.297
lowerback -16.7717 -0.286385 -5.06176
upperback 2.8692 0.782632 -1.01158
thorax 12.6253 0.0213041 1.96061
lowerneck -2.46529 -0.910484 -1.15248
upperneck 19.448 -3.12432 3.34522
head 6.36531 -1.84306 1.01031
rclavicle 3.64956e-015 -1.19581e-015
rhumerus -34.6662 -9.5312 -81.2026
rradius 44.6734
rwrist -7.14721
rhand -8.87982 -52.4098
rfingers 7.12502
rthumb 17.0621 638.319
lclavicle 3.64956e-015 -1.19581e-015
lhumerus -33.9945 3.29357 78.6211
lradius 30.6936
lwrist -0.941054
lhand -21.0497 -13.8847
lfingers 7.12502
lthumb 5.32636 16.0283
rfemur -27.3271 3.93116 21.2774
rtibia 15.939
rfoot -20.947 -12.1221
rtoes -29.2297
lfemur -83.7241 -3.73407 -21.1781
ltibia 71.9977
lfoot -7.82714 1.30952
ltoes -34.312
755
root 10.0485 22.2539 -8.37609 -155.144 -1.34914 176.363
lowerback -16.7905 -0.257554 -5.11645
upperback 2.86131 0.830254 -0.972102
thorax 12.623 0.0382516 2.04871
lowerneck -4.18048 -1.32954 -1.52394
upperneck 21.9272 -4.05621 3.5573
head 7.50718 -2.33148 1.03476
rclavicle 1.08586e-014 -1.11071e-014
rhumerus -34.3549 -9.22364 -81.1265
rradius 44.3349
rwrist -7.20373
rhand -8.22437 -52.8295
rfingers 7.12502
rthumb 17.6929 637.955
lclavicle 1.08586e-014 -1.11071e-014
lhumerus -34.2734 3.24856 78.71
lradius 30.9339
lwrist -0.914697
lhand -20.9198 -13.11
lfingers 7.12502
lthumb 5.45179 16.7999
rfemur -27.2813 4.16904 21.3492
rtibia 16.0869
rfoot -21.0354 -12.5578
rtoes -30.8148
lfemur -83.4954 -3.70546 -21.0124
ltibia 71.4271
lfoot -6.87625 0.999981
ltoes -34.7236
756
root 10.0401 22.2516 -8.43821 -155.42 -1.11347 176.416
lowerback -16.7641 -0.172677 -5.10595
upperback 2.99314 0.951158 -1.01584
thorax 12.7514 0.0922269 2.02651
lowerneck -2.7977 -1.02667 -0.765433
upperneck 19.7855 -3.27394 2.92528
head 6.52385 -1.91714 0.795876
rclavicle -6.98192e-015 1.82517e-014
rhumerus -34.5024 -8.92462 -81.2059
rradius 44.9155
rwrist -7.02258
rhand -7.94043 -52.5964
rfingers 7.12502
rthumb 17.9662 638.213
lclavicle -6.98192e-015 1.82517e-014
lhumerus -34.4559 3.44369 78.6558
lradius 30.9767
lwrist -1.06375
lhand -20.881 -12.5142
lfingers 7.12502
lthumb 5.48921 17.3947
rfemur -26.7531 4.31012 21.3562
rtibia 16.0759
rfoot -21.2581 -12.6379
rtoes -31.295
lfemur -82.8321 -3.61035 -20.9487
ltibia 70.7963
lfoot -5.73863 0.818007
ltoes -33.0348
757
root 10.0359 22.242 -8.48282 -155.232 -1.02351 176.431
lowerback -16.9595 -0.203796 -5.2221
upperback 2.91221 0.941801 -1.0136
thorax 12.7737 0.0786755 2.09407
lowerneck -3.09661 -1.02544 -1.6309
upperneck 20.3879 -3.553 4.22783
head 6.80968 -2.03483 1.33152
rclavicle -5.46658e-016 -3.42034e-014
rhumerus -34.4274 -8.65078 -81.4128
rradius 44.9429
rwrist -7.23482
rhand -8.89642 -51.9998
rfingers 7.12502
rthumb 17.0461 638.728
lclavicle -5.46658e-016 -3.42034e-014
lhumerus -34.4938 3.77808 78.5299
lradius 30.6194
lwrist -1.37633
lhand -21.0782 -13.1568
lfingers 7.12502
lthumb 5.29885 16.7569
rfemur -26.8523 4.25678 21.3897
rtibia 16.1788
rfoot -21.378 -12.5998
rtoes -31.4293
lfemur -82.8108 -3.63822 -20.8755
ltibia 70.516
lfoot -4.87566 0.607057
ltoes -27.8979
758
root 10.0243 22.2361 -8.54968 -155.552 -0.792286 176.497
lowerback -16.9465 -0.166174 -5.23787
upperback 2.977 0.999137 -1.0237
thorax 12.8367 0.102093 2.10728
lowerneck -2.38518 -0.821869 -0.642569
upperneck 19.8796 -3.07525 3.0027
head 6.47746 -1.83097 0.815265
rclavicle 4.26766e-015 -3.24516e-014
rhumerus -34.3942 -8.40276 -81.5914
rradius 44.9382
rwrist -7.59493
rhand -9.30008 -52.2212
rfingers 7.12502
rthumb 16.6576 638.474
lclavicle 4.26766e-015 -3.24516e-014
lhumerus -34.5868 4.31311 78.3901
lradius 30.1994
lwrist -1.8945
lhand -21.1623 -13.724
lfingers 7.12502
lthumb 5.21764 16.1917
rfemur -26.1481 4.14472 21.4509
rtibia 15.9176
rfoot -21.4568 -12.2536
rtoes -31.2354
lfemur -81.9975 -3.58741 -20.8404
ltibia 70.0784
lfoot -4.79259 0.682909
ltoes -25.7305
759
root 10.0249 22.2213 -8.5914 -155.22 -0.918908 176.47
lowerback -17.2569 -0.267646 -5.36853
upperback 2.8629 0.902202 -0.994028
thorax 12.8951 0.0447958 2.19063
lowerneck -4.76031 -1.2497 -1.66287
upperneck 23.5844 -4.32898 3.89344
head 8.18397 -2.49599 1.12173
rclavicle 3.5657e-015 -1.50828e-014
rhumerus -34.3774 -8.53036 -81.6583
rradius 45.091
rwrist -7.22223
rhand -9.08219 -52.1633
rfingers 7.12502
rthumb 16.8673 638.549
lclavicle 3.5657e-015 -1.50828e-014
lhumerus -34.4936 4.50675 78.3834
lradius 29.8833
lwrist -2.0314
lhand -21.1098 -13.5933
lfingers 7.12502
lthumb 5.26829 16.3212
rfemur -26.2864 4.08412 21.481
rtibia 15.8389
rfoot -21.5324 -12.2847
rtoes -31.1679
lfemur -82.1664 -3.71734 -20.811
ltibia 70.2314
lfoot -5.56416 0.823538
ltoes -28.1299
760
root 10.0222 22.2116 -8.64056 -155.089 -0.839353 176.571
lowerback -17.4344 -0.259858 -5.39756
upperback 2.93376 0.930271 -0.938377
thorax 13.0797 0.047625 2.27897
lowerneck -6.33652 -1.59749 -2.41277
upperneck 25.1346 -5.12227 4.65396
head 9.07316 -2.86057 1.39625
rclavicle -2.48481e-016 8.19987e-015
rhumerus -34.0437 -8.86456 -81.6209
rradius 45.1502
rwrist -6.01161
rhand -8.11623 -51.7903
rfingers 7.12502
rthumb 17.797 639.004
lclavicle -2.48481e-016 8.19987e-015
lhumerus -34.1104 4.56147 78.5064
lradius 29.5817
lwrist -1.96729
lhand -21.1163 -13.8851
lfingers 7.12502
lthumb 5.26206 16.0296
rfemur -26.3586 4.19607 21.6044
rtibia 16.2187
rfoot -21.9712 -12.317
rtoes -31.1329
lfemur -82.0924 -3.63037 -20.7365
ltibia 70.4813
lfoot -6.53983 1.35431
ltoes -29.3826
761
root 10.0139 22.2049 -8.69587 -155.004 -0.670706 176.626
lowerback -17.6516 -0.298302 -5.43447
upperback 3.17138 0.915795 -0.95006
thorax 13.4879 0.0238154 2.28447
lowerneck -8.07149 -1.46319 -2.0251
upperneck 26.1957 -4.87047 4.02291
head 9.74425 -2.72474 1.10715
rclavicle -2.23633e-015 2.29099e-014
rhumerus -33.1529 -8.37097 -81.93
rradius 44.8653
rwrist -6.79892
rhand -8.83481 -52.0278
rfingers 7.12502
rthumb 17.1054 638.705
lclavicle -2.23633e-015 2.29099e-014
lhumerus -33.5946 4.94809 78.4651
lradius 29.3555
lwrist -2.06118
lhand -21.0917 -14.1654
lfingers 7.12502
lthumb 5.28578 15.7487
rfemur -26.4569 4.3912 21.612
rtibia 16.7587
rfoot -22.5531 -12.3899
rtoes -31.289
lfemur -81.9178 -3.56609 -20.7514
ltibia 70.7465
lfoot -7.36708 1.8013
ltoes -28.9399
762
root 10.0058 22.1987 -8.75044 -154.907 -0.617199 176.658
lowerback -17.7338 -0.266974 -5.42414
upperback 2.88444 0.941838 -0.916669
thorax 13.1989 0.046725 2.3247
lowerneck -6.22956 -1.43499 -2.57712
upperneck 25.1392 -4.86356 4.62271
head 9.0457 -2.76259 1.44083
rclavicle 9.23106e-015 -4.87022e-015
rhumerus -33.7261 -8.44124 -81.8256
rradius 45.0412
rwrist -6.39096
rhand -7.65516 -52.7255
rfingers 7.12502
rthumb 18.2406 638.11
lclavicle 9.23106e-015 -4.87022e-015
lhumerus -34.425 4.81891 78.5602
lradius 29.4241
lwrist -2.04531
lhand -21.054 -13.8853
lfingers 7.12502
lthumb 5.32217 16.0279
rfemur -26.4722 4.5112 21.5999
rtibia 16.9559
rfoot -22.7739 -12.4889
rtoes -31.7587
lfemur -81.7365 -3.6346 -20.7362
ltibia 71.0062
lfoot -8.0932 1.81451
ltoes -29.276
763
root 9.99872 22.1926 -8.80387 -154.851 -0.578125 176.717
lowerback -17.7455 -0.2485 -5.41896
upperback 2.7602 0.954941 -0.874978
thorax 13.0593 0.0568974 2.37242
lowerneck -5.3917 -1.29249 -2.44023
upperneck 24.1716 -4.47628 4.39953
head 8.53023 -2.58445 1.39731
rclavicle 2.39163e-015 -4.69629e-015
rhumerus -33.8762 -8.40488 -81.8411
rradius 45.1865
rwrist -6.20685
rhand -7.51628 -52.5598
rfingers 7.12502
rthumb 18.3742 638.288
lclavicle 2.39163e-015 -4.69629e-015
lhumerus -34.7216 4.78772 78.664
lradius 29.2544
lwrist -1.92767
lhand -20.8255 -13.3396
lfingers 7.12502
lthumb 5.5428 16.5679
rfemur -26.3316 4.56075 21.6355
rtibia 16.9236
rfoot -22.8112 -12.4988
rtoes -32.0972
lfemur -81.5242 -3.68843 -20.6456
ltibia 71.2085
lfoot -8.83874 1.61752
ltoes -29.4904
